<?xml version="1.0" encoding="utf-8"?>
<!-- Generator: Adobe Illustrator 19.0.0, SVG Export Plug-In . SVG Version: 6.00 Build 0)  -->
<svg version="1.1" id="Layer_1" xmlns="http://www.w3.org/2000/svg" xmlns:xlink="http://www.w3.org/1999/xlink" x="0px" y="0px"
	 viewBox="-346 427.5 747 93.5" enable-background="new -346 427.5 747 93.5" xml:space="preserve">
<g>
	<g enable-background="new    ">
		<path fill="#FFFFFF" d="M-323.337,476.611c8.12,0,13.16,3.696,13.16,9.801c0,4.424-2.632,7.728-6.888,8.735
			c5.264,0.896,8.4,4.648,8.4,9.912c0,6.72-5.432,10.752-14.28,10.752h-17.416v-39.2H-323.337z M-333.753,492.851h10.08
			c4.2,0,6.72-1.96,6.72-5.264c0-3.305-2.52-5.097-6.72-5.097h-10.08V492.851z M-333.753,509.931h10.08
			c5.152,0,8.232-2.016,8.232-5.712c0-3.472-3.08-5.544-8.232-5.544h-10.08V509.931z"/>
		<path fill="#FFFFFF" d="M-277.922,506.963l-3.752,8.848h-6.888l17.304-39.2h6.776l17.136,39.2h-7.056l-3.752-8.848H-277.922z
			 M-268.066,483.667l-7.392,17.416h14.784L-268.066,483.667z"/>
		<path fill="#FFFFFF" d="M-192.97,482.491l-3.864,4.816c-2.856-3.08-6.944-4.984-10.92-4.984c-7.84,0-14,6.049-14,13.776
			s6.16,13.832,14,13.832c3.92,0,7.952-1.792,10.92-4.648l3.92,4.368c-3.976,3.92-9.632,6.44-15.176,6.44
			c-11.48,0-20.384-8.681-20.384-19.937c0-11.144,9.016-19.712,20.608-19.712C-202.322,476.443-196.778,478.739-192.97,482.491z"/>
		<path fill="#FFFFFF" d="M-152.762,498.507l-6.664,7.336v9.968h-6.608v-39.2h6.608v20.272l18.704-20.272h7.784l-15.176,16.744
			l16.184,22.456h-7.952L-152.762,498.507z"/>
		<path fill="#FFFFFF" d="M-38.803,482.491l-3.864,4.816c-2.856-3.08-6.944-4.984-10.92-4.984c-7.84,0-14,6.049-14,13.776
			s6.16,13.832,14,13.832c3.92,0,7.952-1.792,10.92-4.648l3.92,4.368c-3.976,3.92-9.632,6.44-15.176,6.44
			c-11.48,0-20.384-8.681-20.384-19.937c0-11.144,9.016-19.712,20.608-19.712C-48.156,476.443-42.612,478.739-38.803,482.491z"/>
		<path fill="#FFFFFF" d="M16.636,515.811v-16.24H-4.14v16.24h-6.608v-39.2h6.608v17.024h20.776v-17.024h6.608v39.2H16.636z"/>
		<path fill="#FFFFFF" d="M59.811,506.963l-3.752,8.848h-6.888l17.304-39.2h6.775l17.137,39.2h-7.057l-3.752-8.848H59.811z
			 M69.667,483.667l-7.391,17.416h14.783L69.667,483.667z"/>
		<path fill="#FFFFFF" d="M144.371,515.811l-20.888-28.112v28.112h-6.608v-39.2h6.496l21,28.168v-28.168h6.496v39.2H144.371z"/>
		<path fill="#FFFFFF" d="M210.003,515.811l-20.889-28.112v28.112h-6.607v-39.2h6.496l21,28.168v-28.168h6.496v39.2H210.003z"/>
		<path fill="#FFFFFF" d="M275.634,515.811l-20.888-28.112v28.112h-6.608v-39.2h6.496l21,28.168v-28.168h6.496v39.2H275.634z"/>
		<path fill="#FFFFFF" d="M320.378,482.547v10.584h19.151v5.936h-19.151v10.809h22.063v5.936h-28.672v-39.2h28v5.937H320.378z"/>
		<path fill="#FFFFFF" d="M395.361,509.819v5.992h-23.576v-39.2h6.608v33.208H395.361z"/>
	</g>
	<g enable-background="new    ">
		<path fill="#FFFFFF" d="M-30.657,434.741v13.07h-2.597v-13.07h-4.862v-2.332h12.344v2.332H-30.657z"/>
		<path fill="#FFFFFF" d="M31.208,447.811v-6.381h-8.163v6.381h-2.596v-15.402h2.596v6.689h8.163v-6.689h2.597v15.402H31.208z"/>
		<path fill="#FFFFFF" d="M84.446,434.741v4.159h7.525v2.332h-7.525v4.247h8.67v2.332H81.85v-15.402h11.002v2.332H84.446z"/>
	</g>
</g>
</svg>
