<svg xmlns="http://www.w3.org/2000/svg" viewBox="0 0 100 100.001"><defs><style>.a{fill:#fff;}</style></defs><title>nodesource_identity(RGB)_mark_invert</title><path class="a" d="M94.661,596.63a1.755,1.755,0,0,0,1.537-1.753,1.8,1.8,0,0,0-1.933-1.787H91.731a0.428,0.428,0,0,0-.428.428v5.464a0.428,0.428,0,0,0,.857,0v-2.32h1.477l1.812,2.567a0.428,0.428,0,1,0,.7-0.494Zm-2.5-.824v-1.86h2.106a0.94,0.94,0,1,1,0,1.86H92.159ZM93.75,590a6.25,6.25,0,1,0,6.25,6.25A6.257,6.257,0,0,0,93.75,590Zm0,11.724a5.474,5.474,0,1,1,5.474-5.474A5.48,5.48,0,0,1,93.75,601.724Z" transform="translate(0 -590)"/><path class="a" d="M36.849,649.153a2.085,2.085,0,0,1-3.783,1.209L22.488,635.51v13.643a2.085,2.085,0,1,1-4.17,0V628.987a2.085,2.085,0,0,1,3.783-1.209l10.578,14.853V628.987a2.085,2.085,0,1,1,4.17,0v20.166Z" transform="translate(0 -590)"/><path class="a" d="M51.172,662.937a1.173,1.173,0,1,1-2.346,0V617.063a1.173,1.173,0,1,1,2.346,0v45.874Z" transform="translate(0 -590)"/><path class="a" d="M82.269,645.238c-0.533,4.231-4.919,6.1-8.7,6.3a14.421,14.421,0,0,1-10.237-3.627,1.842,1.842,0,0,1,.992-3.248,2.987,2.987,0,0,1,1.884.818,14.171,14.171,0,0,0,2.716,1.4,9.9,9.9,0,0,0,6.27.382c1.453-.4,3.608-1.657,2.813-3.5-0.728-1.693-3.452-2.316-5.04-2.662a22.381,22.381,0,0,1-6.249-1.9,6.386,6.386,0,0,1-2.98-8.3c1.868-3.995,7.135-4.843,11.055-4.067a13.422,13.422,0,0,1,5.664,2.543c1.767,1.429-.029,4.316-2.019,3.039a11.2,11.2,0,0,0-6.785-1.868c-1.772.135-4.374,1.135-4.331,2.844,0.039,1.579,1.439,2.23,2.78,2.679,2.039,0.682,4.2.857,6.234,1.583C79.633,638.831,82.753,641.392,82.269,645.238Z" transform="translate(0 -590)"/><path class="a" d="M50,690a50,50,0,1,1,50-50A50.057,50.057,0,0,1,50,690Zm0-95.994A45.994,45.994,0,1,0,95.993,640,46.045,46.045,0,0,0,50,594.007Z" transform="translate(0 -590)"/></svg>